<?xml version="1.0" encoding="utf-8"?>
<!-- Generator: Adobe Illustrator 17.1.0, SVG Export Plug-In . SVG Version: 6.00 Build 0)  -->
<!DOCTYPE svg PUBLIC "-//W3C//DTD SVG 1.1//EN" "http://www.w3.org/Graphics/SVG/1.1/DTD/svg11.dtd">
<svg version="1.1" id="Layer_1" xmlns="http://www.w3.org/2000/svg" xmlns:xlink="http://www.w3.org/1999/xlink" x="0px" y="0px"
	 viewBox="0 0 320 60" enable-background="new 0 0 320 60" xml:space="preserve">
<path id="logo_x5F_c" fill="#FFFFFF" d="M51.8,50.8C45.2,57.3,38.4,60,30,60C13.6,60,0,49.9,0,29.9C0,9.8,13.6,0,30,0
	c8,0,14.2,2.3,20.4,8.4l-8.8,9.3c-3.3-3-7.4-4.5-11.3-4.5C20.8,13.2,14,20,14,29.9c0,10.8,7.3,16.5,16,16.5c4.5,0,8.9-1.3,12.4-4.7
	C42.4,41.7,51.8,50.8,51.8,50.8z"/>
<path id="logo_x5F_a" fill="#FFFFFF" d="M102.7,2h13.1v56h-12.9l-0.7-8.2C99,56.5,90.2,59.9,83.9,60c-16.7,0.1-29.8-10.4-29.8-30.2
	c0-19.5,13.6-29.7,30.1-29.5c7.6,0,14.8,3.5,18,9.2C102.2,9.5,102.7,2,102.7,2z M68.8,29.8c0,10.8,7.4,17.2,16.7,17.2
	c22,0,22-34.2,0-34.2C76.3,12.7,68.8,19,68.8,29.8z"/>
<path id="logo_x5F_n" fill="#FFFFFF" d="M169.6,58V28.5c0-8.6-4.4-15.1-13.3-15.1c-8.6,0-14.2,7.2-14.2,15.8V58H128V2h12.5l0.9,7.2
	c5.7-5.6,11.5-9.2,18.5-9.2c13.3,0,23.8,10.6,23.8,28.4V58H169.6L169.6,58z"/>
<path id="logo_x5F_v" fill="#FFFFFF" d="M251.4,2l-24,56h-15.1L188.1,2h15.2l7.8,18.2l8.7,23.8l8.6-23.6L236.2,2H251.4z"/>
<path id="logo_x5F_s" fill="#FFFFFF" d="M293.6,16.6c-4-3.8-8.6-5-14-5c-6.6,0-10.3,2.1-10.3,5.6c0,3.7,3.3,5.7,10.5,6.2
	c10.7,0.6,24.2,3.1,24.2,18c0,10-8.1,18.6-24.3,18.6c-8.9,0-17.9-1.5-26.1-10.1l6.9-10c4,4.5,13.2,7.8,19.5,7.9
	c5.3,0.1,10.2-2.6,10.2-6.8c0-3.9-3.2-5.5-11.2-6c-10.6-0.8-24.1-4.7-24.1-17.5C254.8,4.6,269.1,0,279.4,0c8.8,0,15.5,1.7,22,7.4
	L293.6,16.6L293.6,16.6z"/>
<g>
	<path fill="#FFFFFF" d="M312.2,6.1h1.6c0.3,0,0.5,0,0.7,0.1c0.3,0.1,0.4,0.4,0.4,0.9c0,0.4-0.1,0.7-0.4,0.8
		c-0.2,0.1-0.4,0.1-0.7,0.1h-1.6V6.1z M312.2,9.1h1.4c0.4,0,0.7,0.1,0.8,0.2c0.1,0.2,0.2,0.5,0.2,0.9l0,0.7c0,0.2,0,0.4,0.1,0.6
		c0,0.1,0.1,0.2,0.1,0.4h1.6v-0.2c-0.1-0.1-0.2-0.2-0.3-0.4c0-0.1,0-0.3,0-0.7v-0.5c0-0.5-0.1-0.9-0.2-1.1c-0.1-0.2-0.4-0.4-0.7-0.6
		c0.4-0.1,0.7-0.4,0.8-0.7c0.2-0.3,0.3-0.7,0.3-1c0-0.3,0-0.5-0.1-0.7c-0.1-0.2-0.2-0.4-0.4-0.6c-0.2-0.2-0.4-0.4-0.7-0.5
		c-0.3-0.1-0.6-0.2-1.1-0.2h-3.4v7.1h1.4V9.1z"/>
	<path fill="#FFFFFF" d="M313.6,2.9c3,0,5.5,2.5,5.5,5.5c0,3-2.5,5.5-5.5,5.5c-3,0-5.5-2.5-5.5-5.5C308.1,5.4,310.6,2.9,313.6,2.9
		 M313.6,14.8c3.5,0,6.4-2.9,6.4-6.4c0-3.5-2.9-6.4-6.4-6.4c-3.5,0-6.4,2.9-6.4,6.4C307.2,11.9,310.1,14.8,313.6,14.8"/>
</g>
</svg>
