<svg xmlns="http://www.w3.org/2000/svg" viewBox="0 0 50 50" enable-background="new 0 0 50 50"><g fill="#fff"><path d="M0 25c0-13.8 11.2-25 25-25s25 11.2 25 25-11.2 25-25 25-25-11.2-25-25zm8.6-16.4c-4.2 4.2-6.8 10-6.8 16.4 0 6.4 2.6 12.2 6.8 16.4 4.2 4.2 10 6.8 16.4 6.8 6.4 0 12.2-2.6 16.4-6.8 4.2-4.2 6.8-10 6.8-16.4 0-6.4-2.6-12.2-6.8-16.4-4.2-4.2-10-6.8-16.4-6.8-6.4.1-12.2 2.6-16.4 6.8zM13.1 23.9l9.9 12.6v-12.6h2.4v16.6h-2.4l-9.9-12.6v12.6h-2.4v-16.6h2.4zM30.6 23.9l5.1 7.1 5-7.1h3l-6.9 9.4v7.1h-2.4v-7.1l-6.7-9.4h2.9zM12.9 11.7l1.7 2.5-.8.5-2.7-3.9.8-.5 2.7 1v-2.9l.8-.5 2.7 3.9-.8.5-1.7-2.5v2.9l-2.7-1zM20.7 6.1l1.3-.2 3.1 4.3-1.1.2-.6-.9-2.8.5-.3 1-1.1.2 1.5-5.1zm.2 2.8l1.8-.3-1.2-1.7-.6 2zM29.9 6.2c1.1.2 2.2 1 1.9 2.8-.3 1.5-1.5 2.2-2.9 1.9l-2.5-.6 1-4.7 2.5.6zm-2.5 3.4l1.6.4c.8.2 1.5-.2 1.7-1.1.2-1.1-.4-1.5-1.1-1.7l-1.6-.4-.6 2.8zM38.9 10.8l-.6.8-2.7-1.9-.5.7 1.4 1-.5.8-1.4-1-.5.8 2.8 2-.6.8-3.5-2.5 2.7-3.9 3.4 2.4zM22.2 15.2v4.7h-.9v-4.7h.9zM24.6 15.2h.9l2.6 3.2v-3.2h.9v4.7h-.9l-2.6-3.2v3.2h-.9v-4.7zM45 4.1h-.4v-.1c0-.2-.1-.3-.3-.3-.2 0-.3.2-.3.4s0 .3.2.4l.3.1c.5.1.5.3.5.7 0 .5-.2.8-.7.8-.4 0-.7-.3-.7-.7v-.1h.4v.1c0 .1.1.3.3.3.3 0 .3-.2.3-.4 0-.3 0-.4-.2-.4l-.3-.1c-.4-.1-.4-.4-.4-.7 0-.4.2-.8.7-.8.4 0 .7.3.7.6v.2zM45.5 3.3h.4l.5 1.5.6-1.5h.4v2.9h-.4v-1.8l-.4 1.2h-.2l-.4-1.2v1.7h-.4v-2.8z"/></g></svg>