<svg xmlns="http://www.w3.org/2000/svg" viewBox="226 226 60 60" enable-background="new 226 226 60 60"><path fill="#fff" d="M286 237.4c-2.2 1-4.6 1.6-7.1 1.9 2.5-1.5 4.5-3.9 5.4-6.8-2.4 1.4-5 2.4-7.8 3-2.2-2.4-5.4-3.9-9-3.9-6.8 0-12.3 5.5-12.3 12.3 0 1 .1 1.9.3 2.8-10.2-.5-19.3-5.4-25.4-12.9-1.1 1.8-1.7 3.9-1.7 6.2 0 4.3 2.2 8 5.5 10.2-2-.1-3.9-.6-5.6-1.5v.2c0 6 4.2 10.9 9.9 12.1-1 .3-2.1.4-3.2.4-.8 0-1.6-.1-2.3-.2 1.6 4.9 6.1 8.4 11.5 8.5-4.2 3.3-9.5 5.3-15.3 5.3-1 0-2-.1-2.9-.2 5.4 3.5 11.9 5.5 18.9 5.5 22.6 0 35-18.8 35-35v-1.6c2.4-1.7 4.4-3.8 6.1-6.3z"/></svg>