<svg xmlns="http://www.w3.org/2000/svg" viewBox="0 1200 500 100" enable-background="new 0 1200 500 100"><path fill="#fff" d="M65.4 1289.9v-35.5c0-8-4.8-15.6-12.7-16.1-8.4-.3-14.4 6-14.4 16.1v35.5h-5.2v-36.3c0-8-6.4-15.2-14.4-15.1-8 .3-13 8-13 16.1v35.3h-5.7v-36c0-10.7 7.5-20.4 18.4-20.9 7.5-.2 14.2 3.8 17.4 9.5 2.8-5.7 9-10.2 16.4-10 9.5.2 18.7 8 18.7 18.1v39.3h-5.5z"/><path fill="#fff" d="M99 1290.1c-10.4 0-18.4-9.9-17.9-20.4.5-11.2 10.2-18.7 22.2-18.7h20.7c0-3.7-1.2-6.5-3.8-9-2.3-2-4.3-3-7.4-3h-26.7v-5.4h24.2c5.7 0 10 1 14.2 5 3.5 3.5 5 6.9 5 12v39.5h-30.5zm25.1-33.3h-22.2c-8.2 0-15.6 6-15.6 14.2 0 8.4 4.8 14.2 16.1 14.2h21.7v-28.4z"/><path fill="#fff" d="M172.1 1289.9h-29.3v-5.2h29.8c7.9 0 14.2-6.5 14.2-14.4 0-8.2-6.9-14.5-15.1-14.5h-17.9c-6.2 0-10.9-5.5-10.7-11.7.2-6.2 5.5-10.7 11.7-10.7h32.2v5h-31.6c-3.7 0-7.2 2.5-7.2 6.2 0 4.3 2 5.7 9.7 5.7h13.4c12.4 0 20.6 8.2 20.9 19.2.6 11-9.1 20.4-20.1 20.4z"/><path fill="#fff" d="M244.5 1289.7v-38c0-4.2-1.3-7.7-4.3-10-3.8-2.7-7-2.8-11.7-2.8h-21.7v51h-6v-85.3h5.9v28.8h21.7c6.2 0 10.2.5 15.1 3.8s6.7 7.7 6.7 13.5v39.1h-5.5v-.1z"/><path fill="#fff" d="M317.1 1291.2c-7.2.2-13.4-3.8-16.6-9.4-3.3 5.5-9.9 9.9-16.7 9.4-13.2-1-19.1-10.5-19.1-21.9v-36h5.7v35.5c0 9.7 4.7 17.1 13 17.2 8.2 0 13.9-6.2 13.9-16.1v-36.6h5.7v35.5c0 11.2 5.4 17.2 14 17.2 7.4-.2 13.5-6.2 13.5-13.9v-38.8h5.7v38.3c.4 10.8-9.6 19.5-19.1 19.6z"/><path fill="#fff" d="M434.9 1238.4c-3.3 0-6.2.8-8.5 3-3.7 3-4.8 6.5-4.8 11.4v37.1h-5.2v-40c0-5 2.3-9 5-11.7 2.8-3 7.5-4.8 13-4.8h7.4v5h-6.9z"/><path fill="#fff" d="M494.3 1289.9l-26.8-38.3-11.2 5.4v32.9h-5.2v-84.9h5.2v46l34.1-17.2h9.5l-27.9 15.7 27.9 40.5h-5.6z"/><path fill="#AF2328" d="M402.8 1274.2s1-.5-1.8-1.3l-5.7-2s12.4-.5 12.4-1.3c0 0-1.3-.7-6.2-.5h-9.4s-4-1.7-6.7-3.2l.8-.8-.8.8c-1.2-.7-2.2-1.3-2.2-1.8 0 0-.5-.5 3.3.7l-.3.3.3-.3c1.3.5 3.3 1.2 6.4 2.3 0 0 4.2 1.8 5.2.8 0 0 .5-1-2.5-2.2l-7-2.5c2.7-2.2 6.4-5 7.7-6-1.5 1.2-3.5 3.5-4.3 4.3 2.3-2.3 14.2-11.4 14.2-11.4l.3-1.5c.8-.7 1.5-1.5 1.3-2.2 0 0-.3-2.3-7.4 1.2 0 0 2.3-3 1.3-4 0 0-1.2-.2-3.2 1.5 0 0-9.7 9-11.9 10.2 0 0 11.4-11.9 12.5-13.7 0 0 1-2.2-1.2-1.5 0 0-.3-1.7-1.8-.2 0 0-8.7 8.9-14.5 13.2l-.3-2.8h-.8l-.2-3.8s-.8-2.7-1 0v6.7s-2.2-2.3-.7-18.4c0 0 .2-2.8-.8-2.8 0 0-1-.5-1.2 6.4 0 0-1.3-8.2-2.8-8.4 0 0-2.8-.8-2.3 2.7 0 0 1 6.4.7 6.9 0 0-3.5-7.5-4-8 0 0-2-2.3-.7.8 0 0 3.2 6.5 3 7.5 0 0-1.3-.7-4.5-8.7 0 0-1-1.3-1.8-.7 0 0-.8.5.8 3.8 0 0-1.7-.3-1.3 1.3h-1.3s-1-.3 1 2.5c0 0-2-.2-1.2 1.5 0 0 7.2 15.9 7 16.9l-12.7-5.9s-2.7-1-1.8 1c0 0-3.2-1.7-3-.3 0 0-4.7-1.3-4-.3 0 0-1 1.2 2.7 3.3 0 0-2 .7 3 2.5 0 0 5 2 6.4 2.8 0 0 1.2 1.3-7.9-2 0 0-5.4-1.3-6.5-1.2 0 0-3.5-1.2-3.7-.8 0 0-2.3.5 4.3 2.2 0 0-1 1.2 2.2 1.8 0 0 8 1.8 10.7 3.7l-.2 1s-12.2-4-15.6-5.2c0 0-2.5.2 1.2 1.5 0 0 5.4 1.5 13.5 4.5l7.4 2.5-10.9 11.5.7.5 13.2-10.9s1.7-.5-5.4 7.5c0 0-7.4 7-6.7 8.4l.7.8s-3 2.3-2 3.3l-1 1.5 1 1.2s2.2-2.5 6-4.7c0 0-2.5 3.2-3.5 3.8 0 0-1.8 1.8-.3 2.3 0 0 .8-.5 3.2-3.7 0 0 8.2-9.2 14.9-14.7 0 0 3-1.3-12.5 13.9 0 0 9.5-8.9 15.6-15.9 0 0 1.2-.3 1.2 2.5 0 0 .7 7.9 2 15.2 0 0 1.2 4.7 1.7 5 0 0 .7 0-.2-13.7l5.4 9.7s.5 1 1.3.7c0 0 .3 0-.7-2.7 0 0-3.2-6.4-3.3-8.4 0 0 2.7 1.8 4.5 7.7 0 0 2.3 4.7 4.2 4.5 0 0 .5-.5.5-2.2l1.2-.3-7.7-16.2.7 1.2 7.5 14-6.9-13.9 7.5 2s-10.4-3.3-7.5-3.3c0 0 12.7 3.5 16.7 5.4 0 0 2.3-.5 2-2.5-.8.2-.6-.6-5.5-2.9zm-37.1-28.3c-.2-.3-.2-.7-.3-1.2l1.2 1.3.3 1.5c-.2.2-.8-.3-1.2-1.6zm.9-12.5l1 2.7c-1.5-1.2-1-2.7-1-2.7zm-13.1 22.4l-.2-.2-.2-.3h.5l.3.3.5.2h.5l.7.3.7.3.5.3.8.5 1.3 1c-2-.4-4.6-1.9-5.4-2.4zm6.5-.2c-.5 0-.8.2-.8.2h-1.3l-.3-.3s0-.2.2-.3c.2 0 .7-.2.7-.2h.7l.5.2h.5c-.2.1.2.4-.2.4zm6.1 13.9l-1.3.8-1.8 1.2 3-3.3.5.2.3-.3s.2 0 .3.2c.1.2-1 1.2-1 1.2zm-2.1 12.7l-.2.3-.5.3-.5.5-.8.5-.3.3-.5.3-.5.7-.3.5-.3.3-.8.5.2-.2.2-.3.3-.3.2-.3.2-.3.5-.5.3-.3c.3-.3.3-.2.7-.3l.3-.3.7-.7.7-.5.5-.5h.3l-.4.3zm5.6-11.9l-.2.2-.2.3s-.3.5-.8.8l-.3.5-.8.7s-.2.3-.3.3c-.2 0-.5.5-.5.5l-.2-.3v-.2l.2-.3.3-.3.3-.2.3-.5.3-.2.3-.3.3-.7.8-.5.5-.3v.5zm.6-9.3l-.2.2c-.3.2-.5.3-.7.3-.2 0-.5 0-.7-.2l-.2-.2-.8-.5c-.5-.3-.8-.5-.8-.5h-.5l-1-.3s-.2 0-.3-.2l-.2-.2-.7-.2h-.3l-.8-.2-.8-.3-.5-.3-.5-.3s-.2 0-.2-.3v-.2h-.3l-.3-.5v-.3l.8.2.8.3h1.1l1.3.3.5.2s.2.2.5.3-.2 0 .3.2c.5 0 .8-.2 1.2.2l.3.3s.5.3.7.5l.3.2s.3 0 .8.2l.5.3s.3.3.3.5v.2s.6.1.4.3zm-3.1-15.9s2.2 2.7 3.3 6c0 0-1 .3-3.3-6zm5 17c-.5.3-.7-.2-.7-.2l-.3.2-.5-.2v-.5h1.2s.3 0 .3.3v.4zm4.2-16.4l-3-5.7s-1.3-9.4-.3-9.2c0 0 1.5-2.2 2.8 4.3l1 3.8c0 .1.3 5.3-.5 6.8zm11.3 35.8h.5l.3.8c.2.7 1 1.8 1 1.8l-.5-.2s-.3-.2-.5-.3-.3-.2-.5-.5-.2-.3-.3-1c-.2-.7-.5-.7-.5-.8.4-.1.4.2.5.2zm13.9-12.2l.3.2s-.3.3-.5.3h-1.5c-.2 0-.5-.2-.8 0s-.8.2-1 .2h-3.8l7.3-.7zm-16.6-10.4l-.8.3-.7.8-.5.3.2-.8s.7-.8 1-1h.7c.3.3.1.4.1.4zm3.4 3.9l-2.5-.8s.5-3.2 16.4-10.9c-6.9 5.3-11.4 9.2-13.9 11.7zm17.7-16.1s.2.3-3.3 1.8l-3.5 1.5 1.3-1.8c0 .2 4.5-2.1 5.5-1.5zm-17.4 8.6l12.2-10.7-.7 1-2.2 2.3-4.2 3.7-7.7 6.5-.3-.2 2.9-2.6zm-7-1l.3-.3.5-.5.8-.5.8-1h.8l-.5 1-1 .8-1.2 1.2-.5.3-.2-.3.2-.7zm-.2 3.8s.2-.5.3-.8l1.3-1.3 1.3-1.5s11-11 13-12.4c0 0-8.4 9.4-15.2 15.4l-.3.5-.4.1zm2 22.9l-1-2-.2-1.2.5.2.5 1 1.7 3.7-1.5-1.7zm2.1-2l-1.2-1.5-1.2-1.3-.5-.7-.2-.5-.3-1.2.2-.3.5.2.7.7.3.8.8 1 .7 1 .3.8.8 1 .3 1.8-1.2-1.8zm3.1-6.3l-1.5-.7-1.2-.5-.3-.5h.7l1 .5 1.2.3 1.5.3 1.2.5 1.3.3 1.7.5.5.8-6.1-1.5zm3.4-11.4c-.2.2-.3.3-.3.5-.2-.2-.1-.3.3-.5z"/></svg>