<?xml version="1.0" encoding="utf-8"?>
<!-- Generator: Adobe Illustrator 17.1.0, SVG Export Plug-In . SVG Version: 6.00 Build 0)  -->
<!DOCTYPE svg PUBLIC "-//W3C//DTD SVG 1.1//EN" "http://www.w3.org/Graphics/SVG/1.1/DTD/svg11.dtd">
<svg version="1.1" id="Layer_1" xmlns="http://www.w3.org/2000/svg" xmlns:xlink="http://www.w3.org/1999/xlink" x="0px" y="0px"
	 viewBox="0 0 100 100" enable-background="new 0 0 100 100" xml:space="preserve">
<g>
	<path fill="#AF2328" d="M38.6,24.4c-6.2,2.3-10.9,5.8-14,10.5c-3.2,4.7-4.8,10.4-4.8,17h18.8v41.7H0V51.9c0-5.8,1-11.1,3.1-16
		s4.8-9.3,8.3-13.1c3.5-3.8,7.6-7,12.2-9.7c4.6-2.7,9.6-4.8,15-6.5V24.4z M100,24.4c-6.2,2.3-10.9,5.8-14,10.5
		c-3.2,4.7-4.8,10.4-4.8,17H100v41.7H61.4V51.9c0-5.8,1-11.1,3.1-16c2-4.9,4.8-9.3,8.3-13.1c3.5-3.8,7.6-7,12.2-9.7
		c4.6-2.7,9.6-4.8,15-6.5V24.4z"/>
</g>
</svg>
